<?xml version="1.0" encoding="UTF-8"?>
<svg version="1.1" xmlns="http://www.w3.org/2000/svg" width="64" height="64">
<path d="M0 0 C21.12 0 42.24 0 64 0 C64 21.12 64 42.24 64 64 C42.88 64 21.76 64 0 64 C0 42.88 0 21.76 0 0 Z " fill="#221F1F" transform="translate(0,0)"/>
<path d="M0 0 C5.23724692 2.96387807 8.8638854 7.84165621 10.75 13.5 C11.48188105 20.25490217 10.99389476 26.00997547 6.75 31.5 C0.98589731 36.82338659 -3.77424678 38.89517218 -11.62109375 38.76953125 C-16.79158687 38.23942126 -20.51658488 36.37692225 -24.04296875 32.55859375 C-28.85158968 26.35650073 -30.05024766 21.3053141 -29.25 13.5 C-27.40431724 6.81086948 -23.09305037 2.96743646 -17.25 -0.5 C-11.59165621 -2.3861146 -5.51345061 -2.41147069 0 0 Z " fill="#4A4235" transform="translate(41.25,13.5)"/>
<path d="M0 0 C8.58 0 17.16 0 26 0 C24.02 0.99 24.02 0.99 22 2 C12.95195431 6.61304655 5.84330757 12.23220098 2.2421875 22.0703125 C1.77403464 23.69895695 1.37853196 25.34822417 1 27 C0.67 27 0.34 27 0 27 C0 18.09 0 9.18 0 0 Z " fill="#000000" transform="translate(0,0)"/>
<path d="M0 0 C2 3 2 3 3.3125 6.75 C6.38416228 15.01171233 11.22325346 19.85328507 19 24 C21.3525481 24.89887121 23.52765388 25.47396891 26 26 C26 26.33 26 26.66 26 27 C17.42 27 8.84 27 0 27 C0 18.09 0 9.18 0 0 Z " fill="#000000" transform="translate(0,37)"/>
<path d="M0 0 C8.58 0 17.16 0 26 0 C26 8.58 26 17.16 26 26 C24.95499542 23.90999084 23.91915942 21.81293866 22.9921875 19.66796875 C19.63021384 12.2034468 15.6429038 7.06419338 8.0390625 3.68359375 C5.37758648 2.70178961 2.71962751 1.80488976 0 1 C0 0.67 0 0.34 0 0 Z " fill="#000000" transform="translate(38,0)"/>
<path d="M0 0 C0.33 0 0.66 0 1 0 C1 8.58 1 17.16 1 26 C-7.25 26 -15.5 26 -24 26 C-22.68 25.34 -21.36 24.68 -20 24 C-8.65073598 17.95080482 -3.79060344 12.33061002 0 0 Z " fill="#030303" transform="translate(63,38)"/>
<path d="M0 0 C0.66 0.99 1.32 1.98 2 3 C-1 5 -1 5 -4 4.4375 C-6.92138639 3.7038946 -6.92138639 3.7038946 -8.9375 5.0625 C-10.49954362 7.91093248 -9.74921024 9.93504903 -9 13 C-4.46859347 13.93380961 -4.46859347 13.93380961 0 13 C0.99 14.485 0.99 14.485 2 16 C-1.01584266 18.28472928 -2.66927435 18.99409418 -6.5 19.0625 C-11.03251036 17.68655935 -12.51527166 15.99062431 -15 12 C-15.65779752 8.84257189 -15.67580788 7.10236343 -13.97265625 4.32421875 C-9.69184365 -1.1276368 -6.57162229 -1.4338085 0 0 Z " fill="#D1A149" transform="translate(38,23)"/>
<path d="M0 0 C0.66 0.99 1.32 1.98 2 3 C-1 5 -1 5 -4 4.4375 C-6.95981043 3.64982112 -6.95981043 3.64982112 -8.8125 5.3125 C-10.06067349 6.99717798 -10.06067349 6.99717798 -11 9 C-12.32 9 -13.64 9 -15 9 C-14.52153935 4.69385411 -13.34073619 2.75119451 -10 0 C-6.23918426 -1.25360525 -3.84551868 -0.83902226 0 0 Z " fill="#ECCC7F" transform="translate(38,23)"/>
<path d="M0 0 C0 0.99 0 1.98 0 3 C-1.43640171 3.19573608 -2.87419504 3.38127816 -4.3125 3.5625 C-5.11300781 3.66691406 -5.91351562 3.77132813 -6.73828125 3.87890625 C-9 4 -9 4 -12 3 C-11.67 3.99 -11.34 4.98 -11 6 C-11.99 6.33 -12.98 6.66 -14 7 C-14.495 7.495 -14.99 7.99 -15.5 8.5 C-17 10 -17 10 -20 11 C-20.73323796 13.01508358 -20.73323796 13.01508358 -21 15 C-21.66 15 -22.32 15 -23 15 C-22.57933733 10.23248977 -20.47315959 7.14566563 -17 4 C-11.51545415 0.11660697 -6.60291642 -0.55024304 0 0 Z " fill="#AF9967" transform="translate(36,12)"/>
<path d="M0 0 C0.66 0.33 1.32 0.66 2 1 C1.25 2.9375 1.25 2.9375 0 5 C-2.125 5.75 -2.125 5.75 -4 6 C-4.33 7.32 -4.66 8.64 -5 10 C-5.66 10 -6.32 10 -7 10 C-6.47229401 6.20051686 -5.62859821 3.83079807 -3 1 C-2.01 0.67 -1.02 0.34 0 0 Z " fill="#8E7F5A" transform="translate(20,17)"/>
<path d="M0 0 C1.2065625 0.0309375 1.2065625 0.0309375 2.4375 0.0625 C1.4475 2.0425 0.4575 4.0225 -0.5625 6.0625 C-1.8825 6.0625 -3.2025 6.0625 -4.5625 6.0625 C-3.48963568 0.08511307 -3.48963568 0.08511307 0 0 Z " fill="#F5DE96" transform="translate(27.5625,25.9375)"/>
<path d="M0 0 C1.32 0 2.64 0 4 0 C4.33 1.32 4.66 2.64 5 4 C3.35 3.67 1.7 3.34 0 3 C0 2.01 0 1.02 0 0 Z " fill="#B9822C" transform="translate(23,32)"/>
</svg>
